:FULLY-SPECIFIED
:DEGREES
728
root 8.82688 16.4249 -2.58104 2491.7 -83.6393 -2477.15
lowerback -0.502754 -2.88458 -4.93432
upperback 1.52861 -3.77956 -0.794012
thorax 2.12053 -1.96598 1.84268
lowerneck -21.7931 1.54289 -3.20485
upperneck 35.998 1.60977 2.63664
head 16.5845 0.274807 1.95676
rclavicle -3.45885e-014 -1.74931e-014
rhumerus -39.3445 -21.3631 -67.569
rradius 15.2135
rwrist 40.2785
rhand -18.4333 -13.2339
rfingers 7.12502
rthumb 7.85215 -43.0681
lclavicle -3.45885e-014 -1.74931e-014
lhumerus -17.2755 -14.1113 80.2312
lradius 49.7208
lwrist 15.1203
lhand -31.2748 -0.319385
lfingers 7.12502
lthumb -4.54846 29.6118
rfemur -45.647 0.281895 17.5737
rtibia 21.8987
rfoot -5.73934 -5.11403
rtoes -15.8677
lfemur 1.05626 1.41084 -27.8779
ltibia 15.1957
lfoot -8.28782 -6.47271
ltoes -3.28882
729
root 8.79294 16.4011 -2.58139 2492.55 -83.3137 -2477.95
lowerback -0.641231 -2.91039 -4.73485
upperback 1.48304 -3.80922 -0.803408
thorax 2.13912 -1.97674 1.71554
lowerneck -21.7658 1.50349 -3.37571
upperneck 36.0689 1.65102 2.55297
head 16.612 0.25259 1.959
rclavicle -2.78299e-014 -1.07344e-014
rhumerus -40.1375 -23.0832 -65.9229
rradius 14.5215
rwrist 42.6297
rhand -18.25 -13.424
rfingers 7.12502
rthumb 8.02907 -43.2515
lclavicle -2.78299e-014 -1.07344e-014
lhumerus -17.3343 -14.2351 80.2528
lradius 50.1983
lwrist 15.2891
lhand -31.2803 -0.794161
lfingers 7.12502
lthumb -4.55378 29.1369
rfemur -45.678 0.637308 17.286
rtibia 23.2812
rfoot -2.21298 -4.96014
rtoes -13.4143
lfemur 1.56391 1.44898 -27.6755
ltibia 15.8253
lfoot -7.07313 -6.90541
ltoes -2.20149
730
root 8.76621 16.3849 -2.58357 2493.85 -83.1341 -2479.22
lowerback -0.579408 -2.87942 -4.41798
upperback 1.36409 -3.77873 -0.764893
thorax 1.96098 -1.95124 1.58853
lowerneck -21.5765 1.47906 -3.50101
upperneck 36.0959 1.72028 2.38359
head 16.5783 0.235628 1.91684
rclavicle 1.59028e-015 -5.86415e-015
rhumerus -41.0266 -24.6975 -64.2537
rradius 13.9112
rwrist 44.7333
rhand -18.0319 -13.6222
rfingers 7.12502
rthumb 8.23956 -43.4415
lclavicle 1.59028e-015 -5.86415e-015
lhumerus -17.4794 -14.2491 80.3855
lradius 50.5323
lwrist 15.2572
lhand -31.2231 -1.33759
lfingers 7.12502
lthumb -4.49854 28.5946
rfemur -45.7988 0.460912 17.5811
rtibia 25.1013
rfoot -0.180678 -4.1593
rtoes -12.0862
lfemur 1.54339 1.50375 -27.3238
ltibia 17.2619
lfoot -5.90921 -7.20103
ltoes -4.36559
731
root 8.74508 16.3873 -2.58821 2497.35 -83.1404 -2482.68
lowerback -0.483473 -2.80966 -3.77384
upperback 1.2966 -3.70017 -0.642403
thorax 1.79872 -1.89924 1.36738
lowerneck -21.6338 1.44817 -3.55561
upperneck 36.2032 1.78052 2.17648
head 16.6487 0.218593 1.85005
rclavicle -4.37326e-015 -1.04362e-015
rhumerus -41.8037 -26.4495 -62.5896
rradius 13.2811
rwrist 46.9908
rhand -17.9433 -13.8559
rfingers 7.12502
rthumb 8.32509 -43.6719
lclavicle -4.37326e-015 -1.04362e-015
lhumerus -17.6013 -14.0308 80.5613
lradius 50.8718
lwrist 14.8957
lhand -30.9417 -1.52122
lfingers 7.12502
lthumb -4.22688 28.4166
rfemur -46.2414 0.149635 18.3496
rtibia 27.2534
rfoot -0.269706 -3.79992
rtoes -8.90207
lfemur 0.957021 1.37663 -26.5534
ltibia 19.6278
lfoot -4.84118 -7.57728
ltoes -6.7454
732
root 8.73353 16.3698 -2.59028 2501.76 -83.3889 -2487.13
lowerback -0.25302 -2.667 -2.97909
upperback 1.24942 -3.52933 -0.419652
thorax 1.57662 -1.80047 1.17279
lowerneck -21.5626 1.40459 -3.69249
upperneck 36.1765 1.84162 2.00407
head 16.617 0.200711 1.80852
rclavicle 2.92213e-014 -1.37658e-014
rhumerus -42.4686 -27.827 -61.1604
rradius 12.8294
rwrist 48.8198
rhand -17.7299 -14.097
rfingers 7.12502
rthumb 8.531 -43.9046
lclavicle 2.92213e-014 -1.37658e-014
lhumerus -17.8329 -13.7379 80.8428
lradius 51.1429
lwrist 14.3544
lhand -30.8506 -1.64666
lfingers 7.12502
lthumb -4.1389 28.2929
rfemur -46.7132 0.520773 18.911
rtibia 29.5296
rfoot -0.552385 -4.44044
rtoes -8.73512
lfemur 0.000940825 1.52964 -25.5393
ltibia 22.7038
lfoot -2.7719 -8.23022
ltoes -1.33745
733
root 8.72392 16.3449 -2.59029 2506.33 -83.7567 -2491.83
lowerback -0.0300603 -2.49701 -2.14132
upperback 1.30686 -3.317 -0.194879
thorax 1.46604 -1.68449 0.950924
lowerneck -21.5809 1.37591 -3.73068
upperneck 36.0989 1.92974 1.74567
head 16.5833 0.198341 1.71805
rclavicle -7.95139e-015 -9.19379e-016
rhumerus -42.9493 -29.2389 -59.8433
rradius 12.4166
rwrist 50.8109
rhand -17.5488 -14.2734
rfingers 7.12502
rthumb 8.7058 -44.0738
lclavicle -7.95139e-015 -9.19379e-016
lhumerus -18.1003 -13.2759 81.1117
lradius 51.3997
lwrist 14.0327
lhand -30.6246 -1.7875
lfingers 7.12502
lthumb -3.9206 28.1562
rfemur -46.9511 0.68894 19.7256
rtibia 31.7362
rfoot -0.81013 -4.48365
rtoes -11.1116
lfemur -1.16425 2.21695 -24.4403
ltibia 26.2045
lfoot -0.621 -8.44958
ltoes -1.41713
734
root 8.71109 16.3346 -2.59577 2507.89 -83.9186 -2493.72
lowerback 0.297997 -2.35567 -1.73181
upperback 1.46464 -3.13887 -0.105886
thorax 1.42062 -1.59242 0.827802
lowerneck -21.5043 1.32251 -3.86703
upperneck 35.9113 1.93357 1.70359
head 16.4679 0.184844 1.72071
rclavicle -7.35503e-015 7.70291e-015
rhumerus -43.4332 -30.8629 -58.4997
rradius 12.0374
rwrist 53.2454
rhand -17.4043 -14.3586
rfingers 7.12502
rthumb 8.84518 -44.1532
lclavicle -7.35503e-015 7.70291e-015
lhumerus -18.4409 -12.8419 81.3663
lradius 51.5342
lwrist 13.4678
lhand -30.6919 -1.7926
lfingers 7.12502
lthumb -3.9856 28.1499
rfemur -46.8082 0.580354 20.2838
rtibia 33.7455
rfoot -1.34477 -4.11755
rtoes -9.44301
lfemur -2.25859 3.00202 -23.6346
ltibia 29.753
lfoot 2.32545 -8.31835
ltoes 0.0658145
735
root 8.69768 16.3264 -2.59875 2507.45 -83.9603 -2493.63
lowerback 0.562835 -2.21981 -1.49972
upperback 1.67471 -2.96393 -0.137378
thorax 1.46904 -1.50452 0.674572
lowerneck -21.4775 1.24955 -4.01556
upperneck 35.7812 1.85691 1.80195
head 16.3947 0.155546 1.77315
rclavicle -2.78299e-014 1.1778e-014
rhumerus -43.8483 -32.457 -57.349
rradius 11.7493
rwrist 55.4237
rhand -17.1471 -14.2732
rfingers 7.12502
rthumb 9.09339 -44.0572
lclavicle -2.78299e-014 1.1778e-014
lhumerus -18.8011 -12.4533 81.6004
lradius 51.67
lwrist 13.2705
lhand -30.7374 -1.5463
lfingers 7.12502
lthumb -4.02954 28.3953
rfemur -46.5219 0.169714 20.7219
rtibia 35.4917
rfoot -1.84086 -3.44935
rtoes -8.65083
lfemur -3.43346 3.88412 -23.0199
ltibia 33.2985
lfoot 5.65103 -7.78251
ltoes 0.277233
736
root 8.68307 16.3202 -2.60407 2508.12 -83.9731 -2494.75
lowerback 0.919732 -2.08466 -1.22944
upperback 1.88404 -2.79141 -0.128555
thorax 1.46693 -1.41714 0.544086
lowerneck -21.4796 1.15836 -4.12267
upperneck 35.7874 1.72135 1.91529
head 16.4012 0.10341 1.81571
rclavicle 2.15681e-014 8.54774e-015
rhumerus -43.8168 -33.1009 -57.1468
rradius 11.635
rwrist 56.3918
rhand -16.8027 -14.2278
rfingers 7.12502
rthumb 9.42569 -43.997
lclavicle 2.15681e-014 8.54774e-015
lhumerus -19.2421 -12.093 81.9212
lradius 51.703
lwrist 13.1135
lhand -30.7883 -1.29644
lfingers 7.12502
lthumb -4.0787 28.6443
rfemur -45.8447 0.224581 21.0106
rtibia 36.8586
rfoot -2.5127 -3.08782
rtoes -7.86157
lfemur -4.56495 4.69207 -22.2312
ltibia 36.705
lfoot 9.08346 -6.99548
ltoes 0.447456
